<svg width="22" height="26" viewBox="0 0 22 26" fill="none" xmlns="http://www.w3.org/2000/svg">
<path d="M19.6327 8.75898L17.2401 6.36641C17.0077 6.13168 16.6874 6 16.3554 6H9.96475C8.58389 6 7.46475 7.11953 7.46475 8.5L7.46553 18.5C7.4999 19.8828 8.621 21 9.9999 21H17.4999C18.8749 21 19.9999 19.875 19.9999 18.5V9.64258C19.9999 9.31133 19.8671 8.99336 19.6327 8.75898ZM18.1249 18.5C18.1249 18.8452 17.8451 19.125 17.4999 19.125H9.96475C9.61951 19.125 9.33975 18.8452 9.33975 18.5V8.50508C9.33975 8.15992 9.61959 7.88008 9.96475 7.88008H14.9647L14.9999 9.75C14.9999 10.4402 15.5597 11 16.2499 11H18.0897V18.5H18.1249ZM10.6249 23.5C10.6249 23.8452 10.3451 24.125 9.9999 24.125H2.46475C2.11951 24.125 1.83975 23.8452 1.83975 23.5L1.87412 13.5039C1.87412 13.1588 2.15396 12.8789 2.49912 12.8789H6.2499V11H2.49951C1.11865 11 -0.000488281 12.1191 -0.000488281 13.5L-9.76563e-05 23.5C-1.95313e-05 24.8789 1.11943 26 2.4999 26H9.9999C11.3749 26 12.4999 24.875 12.4999 23.5V22.25H10.6601L10.6249 23.5Z" fill="#00A3B9"/>
</svg>
