<svg width="20" height="20" viewBox="0 0 20 20" fill="none" xmlns="http://www.w3.org/2000/svg">
<path d="M8.33341 5H11.6667C11.6667 4.55797 11.4912 4.13405 11.1786 3.82149C10.866 3.50893 10.4421 3.33333 10.0001 3.33333C9.55805 3.33333 9.13413 3.50893 8.82157 3.82149C8.50901 4.13405 8.33341 4.55797 8.33341 5V5ZM6.66675 5C6.66675 4.11594 7.01794 3.2681 7.64306 2.64297C8.26818 2.01785 9.11603 1.66666 10.0001 1.66666C10.8841 1.66666 11.732 2.01785 12.3571 2.64297C12.9822 3.2681 13.3334 4.11594 13.3334 5H17.5001C17.7211 5 17.9331 5.08779 18.0893 5.24408C18.2456 5.40036 18.3334 5.61232 18.3334 5.83333C18.3334 6.05434 18.2456 6.26631 18.0893 6.42259C17.9331 6.57887 17.7211 6.66666 17.5001 6.66666H16.7651L16.0267 15.2833C15.9558 16.1154 15.5751 16.8905 14.96 17.4553C14.3449 18.0201 13.5402 18.3334 12.7051 18.3333H7.29508C6.46001 18.3334 5.65531 18.0201 5.04021 17.4553C4.4251 16.8905 4.0444 16.1154 3.97341 15.2833L3.23508 6.66666H2.50008C2.27907 6.66666 2.06711 6.57887 1.91083 6.42259C1.75455 6.26631 1.66675 6.05434 1.66675 5.83333C1.66675 5.61232 1.75455 5.40036 1.91083 5.24408C2.06711 5.08779 2.27907 5 2.50008 5H6.66675ZM12.5001 10C12.5001 9.77898 12.4123 9.56702 12.256 9.41074C12.0997 9.25446 11.8878 9.16666 11.6667 9.16666C11.4457 9.16666 11.2338 9.25446 11.0775 9.41074C10.9212 9.56702 10.8334 9.77898 10.8334 10V13.3333C10.8334 13.5543 10.9212 13.7663 11.0775 13.9226C11.2338 14.0789 11.4457 14.1667 11.6667 14.1667C11.8878 14.1667 12.0997 14.0789 12.256 13.9226C12.4123 13.7663 12.5001 13.5543 12.5001 13.3333V10ZM8.33341 9.16666C8.55443 9.16666 8.76639 9.25446 8.92267 9.41074C9.07895 9.56702 9.16675 9.77898 9.16675 10V13.3333C9.16675 13.5543 9.07895 13.7663 8.92267 13.9226C8.76639 14.0789 8.55443 14.1667 8.33341 14.1667C8.1124 14.1667 7.90044 14.0789 7.74416 13.9226C7.58788 13.7663 7.50008 13.5543 7.50008 13.3333V10C7.50008 9.77898 7.58788 9.56702 7.74416 9.41074C7.90044 9.25446 8.1124 9.16666 8.33341 9.16666V9.16666ZM5.63341 15.1417C5.66892 15.5578 5.85939 15.9455 6.16712 16.2279C6.47485 16.5103 6.8774 16.6669 7.29508 16.6667H12.7051C13.1225 16.6665 13.5246 16.5097 13.832 16.2274C14.1394 15.945 14.3296 15.5575 14.3651 15.1417L15.0917 6.66666H4.90841L5.63508 15.1417H5.63341Z" fill="#00A3B9"/>
</svg>
