<svg width="20" height="20" viewBox="0 0 20 20" fill="none" xmlns="http://www.w3.org/2000/svg">
<path d="M13.7282 4.50667L15.4932 6.27083M14.8632 2.9525L10.0907 7.725C9.84408 7.97125 9.6759 8.28499 9.60734 8.62667L9.1665 10.8333L11.3732 10.3917C11.7148 10.3233 12.0282 10.1558 12.2748 9.90917L17.0473 5.13667C17.1908 4.99325 17.3045 4.823 17.3821 4.63562C17.4597 4.44824 17.4997 4.2474 17.4997 4.04458C17.4997 3.84177 17.4597 3.64093 17.3821 3.45355C17.3045 3.26617 17.1908 3.09592 17.0473 2.9525C16.9039 2.80909 16.7337 2.69532 16.5463 2.61771C16.3589 2.54009 16.1581 2.50014 15.9553 2.50014C15.7524 2.50014 15.5516 2.54009 15.3642 2.61771C15.1768 2.69532 15.0066 2.80909 14.8632 2.9525V2.9525Z" stroke="#00A3B9" stroke-width="2" stroke-linecap="round" stroke-linejoin="round"/>
<path d="M15.8333 12.5V15C15.8333 15.442 15.6577 15.8659 15.3451 16.1785C15.0325 16.4911 14.6086 16.6667 14.1666 16.6667H4.99992C4.55789 16.6667 4.13397 16.4911 3.82141 16.1785C3.50885 15.8659 3.33325 15.442 3.33325 15V5.83333C3.33325 5.3913 3.50885 4.96738 3.82141 4.65482C4.13397 4.34226 4.55789 4.16666 4.99992 4.16666H7.49992" stroke="#00A3B9" stroke-width="2" stroke-linecap="round" stroke-linejoin="round"/>
</svg>
