<svg width="182" height="50" viewBox="0 0 182 50" fill="none" xmlns="http://www.w3.org/2000/svg">
<path d="M19.6475 36.7275L17.6225 38.74C16.7742 39.575 15.6316 40.043 14.4413 40.043C13.251 40.043 12.1084 39.575 11.26 38.74C10.8464 38.3304 10.5181 37.8429 10.294 37.3057C10.0699 36.7684 9.95457 36.1921 9.95457 35.61C9.95457 35.0279 10.0699 34.4516 10.294 33.9143C10.5181 33.3771 10.8464 32.8896 11.26 32.48L18.71 25.0925C20.2525 23.56 23.1575 21.305 25.275 23.405C25.5029 23.648 25.7774 23.8426 26.0821 23.9771C26.3868 24.1117 26.7156 24.1835 27.0486 24.1883C27.3817 24.193 27.7124 24.1306 28.0208 24.0048C28.3292 23.879 28.6092 23.6923 28.8439 23.4559C29.0786 23.2195 29.2632 22.9382 29.3869 22.6289C29.5105 22.3196 29.5705 21.9885 29.5634 21.6555C29.5563 21.3224 29.4822 20.9943 29.3454 20.6905C29.2087 20.3867 29.0121 20.1136 28.7675 19.8875C25.1725 16.3175 19.8525 16.9775 15.22 21.575L7.77003 28.965C6.88976 29.8329 6.19139 30.8675 5.71577 32.0085C5.24014 33.1495 4.99682 34.3739 5.00003 35.61C4.99696 36.8461 5.24035 38.0705 5.71596 39.2114C6.19158 40.3524 6.88987 41.3871 7.77003 42.255C9.54427 44.0149 11.9435 45.0001 14.4425 44.995C16.86 44.995 19.2775 44.0825 21.115 42.255L23.1425 40.2425C23.3737 40.0138 23.5575 39.7418 23.6834 39.4419C23.8092 39.142 23.8745 38.8203 23.8757 38.4951C23.8768 38.1699 23.8138 37.8477 23.6901 37.5469C23.5664 37.2462 23.3846 36.9728 23.155 36.7425C22.6909 36.2772 22.0616 36.0144 21.4044 36.0116C20.7472 36.0088 20.1156 36.2662 19.6475 36.7275V36.7275ZM42.2275 8.01751C38.36 4.18251 32.955 3.97501 29.38 7.52501L26.8575 10.03C26.3914 10.4928 26.1282 11.1218 26.1259 11.7787C26.1235 12.4355 26.3822 13.0664 26.845 13.5325C27.3078 13.9986 27.9368 14.2618 28.5937 14.2642C29.2505 14.2665 29.8814 14.0078 30.3475 13.545L32.8725 11.0425C34.7225 9.20251 37.15 9.96501 38.7375 11.535C39.5775 12.3725 40.0425 13.4825 40.0425 14.665C40.0425 15.8475 39.5775 16.9575 38.7375 17.7925L30.7875 25.6775C27.1525 29.28 25.4475 27.5925 24.72 26.87C24.4892 26.6409 24.2156 26.4594 23.9146 26.336C23.6137 26.2126 23.2914 26.1497 22.9662 26.1509C22.641 26.152 22.3191 26.2172 22.0191 26.3428C21.7191 26.4683 21.4467 26.6517 21.2175 26.8825C20.9884 27.1133 20.8069 27.387 20.6835 27.6879C20.5601 27.9888 20.4972 28.3111 20.4984 28.6363C20.4996 28.9616 20.5648 29.2834 20.6903 29.5834C20.8158 29.8835 20.9992 30.1559 21.23 30.385C22.9 32.04 24.805 32.86 26.8 32.86C29.2425 32.86 31.825 31.63 34.2825 29.1925L42.2325 21.31C43.1109 20.4409 43.8078 19.4059 44.2829 18.2652C44.758 17.1244 45.0018 15.9007 45 14.665C45.0023 13.4284 44.7583 12.2038 44.2823 11.0625C43.8063 9.92115 43.1078 8.88604 42.2275 8.01751V8.01751Z" fill="#007686"/>
<path d="M73.1991 33.5H69.2389L69.2638 30.5767H73.1991C74.1819 30.5767 75.0105 30.356 75.6852 29.9146C76.3598 29.4648 76.8678 28.811 77.2093 27.9532C77.5591 27.0953 77.734 26.0584 77.734 24.8425V23.9555C77.734 23.0227 77.634 22.2023 77.4342 21.4944C77.2426 20.7865 76.9553 20.191 76.5722 19.7079C76.189 19.2249 75.7185 18.8626 75.1605 18.621C74.6024 18.3712 73.9612 18.2462 73.2366 18.2462H69.1639V15.3104H73.2366C74.4525 15.3104 75.5644 15.5186 76.5722 15.9351C77.5882 16.3432 78.4669 16.9303 79.2081 17.6966C79.9494 18.4628 80.5199 19.3789 80.9197 20.445C81.3278 21.5027 81.5318 22.6812 81.5318 23.9805V24.8425C81.5318 26.1334 81.3278 27.3119 80.9197 28.3779C80.5199 29.444 79.9494 30.3601 79.2081 31.1264C78.4752 31.8843 77.5966 32.4714 76.5722 32.8879C75.5561 33.296 74.4317 33.5 73.1991 33.5ZM71.3626 15.3104V33.5H67.6148V15.3104H71.3626ZM91.5386 15.3104V33.5H87.8032V15.3104H91.5386ZM97.1354 15.3104V18.2462H82.2939V15.3104H97.1354ZM106.68 15.3104H109.853L114.525 28.6653L119.198 15.3104H122.371L115.8 33.5H113.251L106.68 15.3104ZM104.968 15.3104H108.129L108.704 28.328V33.5H104.968V15.3104ZM120.922 15.3104H124.095V33.5H120.347V28.328L120.922 15.3104ZM126.581 26.8788V26.6164C126.581 25.6253 126.723 24.7134 127.006 23.8805C127.289 23.0393 127.701 22.3106 128.243 21.6943C128.784 21.078 129.45 20.5991 130.241 20.2576C131.033 19.9078 131.94 19.7329 132.965 19.7329C133.989 19.7329 134.901 19.9078 135.701 20.2576C136.5 20.5991 137.171 21.078 137.712 21.6943C138.262 22.3106 138.678 23.0393 138.961 23.8805C139.245 24.7134 139.386 25.6253 139.386 26.6164V26.8788C139.386 27.8616 139.245 28.7735 138.961 29.6147C138.678 30.4476 138.262 31.1763 137.712 31.801C137.171 32.4173 136.504 32.8962 135.713 33.2377C134.922 33.5791 134.014 33.7499 132.99 33.7499C131.965 33.7499 131.053 33.5791 130.254 33.2377C129.463 32.8962 128.792 32.4173 128.243 31.801C127.701 31.1763 127.289 30.4476 127.006 29.6147C126.723 28.7735 126.581 27.8616 126.581 26.8788ZM130.179 26.6164V26.8788C130.179 27.4451 130.229 27.974 130.329 28.4654C130.429 28.9568 130.587 29.3899 130.804 29.7646C131.028 30.1311 131.32 30.4184 131.678 30.6266C132.036 30.8349 132.473 30.939 132.99 30.939C133.49 30.939 133.918 30.8349 134.277 30.6266C134.635 30.4184 134.922 30.1311 135.139 29.7646C135.355 29.3899 135.513 28.9568 135.613 28.4654C135.722 27.974 135.776 27.4451 135.776 26.8788V26.6164C135.776 26.0668 135.722 25.5504 135.613 25.0673C135.513 24.576 135.351 24.1429 135.126 23.7681C134.91 23.385 134.622 23.0851 134.264 22.8686C133.906 22.6521 133.473 22.5438 132.965 22.5438C132.457 22.5438 132.024 22.6521 131.666 22.8686C131.316 23.0851 131.028 23.385 130.804 23.7681C130.587 24.1429 130.429 24.576 130.329 25.0673C130.229 25.5504 130.179 26.0668 130.179 26.6164ZM145.12 22.8686V33.5H141.522V19.9828H144.895L145.12 22.8686ZM144.596 26.2666H143.621C143.621 25.2672 143.75 24.3677 144.008 23.5682C144.267 22.7603 144.629 22.0732 145.095 21.5069C145.562 20.9322 146.116 20.495 146.757 20.1951C147.407 19.887 148.131 19.7329 148.931 19.7329C149.564 19.7329 150.142 19.8245 150.667 20.0077C151.192 20.191 151.642 20.4825 152.016 20.8822C152.399 21.282 152.691 21.8109 152.891 22.4688C153.099 23.1268 153.203 23.9305 153.203 24.8799V33.5H149.58V24.8675C149.58 24.2678 149.497 23.8014 149.33 23.4683C149.164 23.1351 148.918 22.9019 148.593 22.7687C148.277 22.6271 147.885 22.5563 147.419 22.5563C146.936 22.5563 146.515 22.6521 146.157 22.8436C145.807 23.0352 145.516 23.3017 145.283 23.6432C145.058 23.9763 144.887 24.3677 144.771 24.8175C144.654 25.2672 144.596 25.7503 144.596 26.2666ZM162.161 33.7499C161.111 33.7499 160.17 33.5833 159.337 33.2501C158.504 32.9087 157.796 32.4381 157.213 31.8385C156.639 31.2388 156.197 30.5434 155.889 29.7521C155.581 28.9526 155.427 28.1031 155.427 27.2036V26.7039C155.427 25.6795 155.573 24.7425 155.864 23.893C156.156 23.0435 156.572 22.3064 157.113 21.6818C157.663 21.0571 158.329 20.5782 159.112 20.2451C159.895 19.9036 160.778 19.7329 161.761 19.7329C162.719 19.7329 163.568 19.8911 164.309 20.2076C165.051 20.5241 165.671 20.9739 166.171 21.5569C166.679 22.1398 167.062 22.8394 167.32 23.6556C167.578 24.4635 167.707 25.363 167.707 26.3541V27.8532H156.964V25.4546H164.172V25.1798C164.172 24.6801 164.08 24.2345 163.897 23.843C163.722 23.4433 163.456 23.1268 163.098 22.8936C162.739 22.6604 162.281 22.5438 161.723 22.5438C161.249 22.5438 160.84 22.6479 160.499 22.8561C160.158 23.0643 159.879 23.3558 159.662 23.7306C159.454 24.1054 159.296 24.5468 159.187 25.0548C159.087 25.5546 159.037 26.1042 159.037 26.7039V27.2036C159.037 27.745 159.112 28.2447 159.262 28.7028C159.42 29.1608 159.641 29.5564 159.924 29.8896C160.216 30.2227 160.566 30.4809 160.974 30.6641C161.39 30.8474 161.861 30.939 162.385 30.939C163.035 30.939 163.639 30.814 164.197 30.5642C164.763 30.306 165.25 29.9187 165.659 29.4024L167.408 31.3013C167.124 31.7094 166.737 32.1008 166.246 32.4756C165.763 32.8504 165.18 33.1585 164.497 33.4001C163.814 33.6333 163.035 33.7499 162.161 33.7499ZM173.592 31.9759L177.177 19.9828H181.037L175.603 35.5363C175.486 35.8778 175.328 36.2443 175.128 36.6357C174.937 37.0271 174.674 37.3978 174.341 37.7476C174.016 38.1057 173.604 38.3972 173.104 38.6221C172.613 38.8469 172.009 38.9594 171.293 38.9594C170.951 38.9594 170.672 38.9385 170.456 38.8969C170.239 38.8553 169.981 38.797 169.681 38.722V36.086C169.773 36.086 169.869 36.086 169.969 36.086C170.069 36.0943 170.164 36.0985 170.256 36.0985C170.731 36.0985 171.118 36.0444 171.418 35.9361C171.718 35.8278 171.959 35.6613 172.142 35.4364C172.326 35.2198 172.471 34.9367 172.58 34.5869L173.592 31.9759ZM172.092 19.9828L175.028 29.7771L175.54 33.5874L173.092 33.8498L168.232 19.9828H172.092Z" fill="#E1E1E6"/>
</svg>
